<svg width="360" height="360" viewBox="0 0 360 360" fill="none" xmlns="http://www.w3.org/2000/svg">
<path d="M253.105 44.7044C262.426 44.7044 269.973 37.1573 269.973 27.8359C269.973 18.5144 262.426 10.9673 253.105 10.9673C243.783 10.9673 236.236 18.5144 236.236 27.8359C236.236 37.1573 243.783 44.7044 253.105 44.7044Z" fill="#77C11F"/>
<path d="M106.882 45.0125C116.204 45.0125 123.751 37.4654 123.751 28.144C123.751 18.8225 116.204 11.2754 106.882 11.2754C97.5608 11.2754 90.0137 18.8225 90.0137 28.144C90.0137 37.4654 97.5608 45.0125 106.882 45.0125Z" fill="#77C11F"/>
<path d="M28.144 123.763C37.4654 123.763 45.0125 116.215 45.0125 106.894C45.0125 97.5725 37.4654 90.0254 28.144 90.0254C18.8225 90.0254 11.2754 97.5725 11.2754 106.894C11.2754 116.215 18.8225 123.763 28.144 123.763Z" fill="#77C11F"/>
<path d="M28.144 269.974C37.4654 269.974 45.0125 262.427 45.0125 253.105C45.0125 243.784 37.4654 236.237 28.144 236.237C18.8225 236.237 11.2754 243.784 11.2754 253.105C11.2754 262.427 18.8225 269.974 28.144 269.974Z" fill="#77C11F"/>
<path d="M106.882 348.712C116.204 348.712 123.751 341.165 123.751 331.843C123.751 322.522 116.204 314.975 106.882 314.975C97.5608 314.975 90.0137 322.522 90.0137 331.843C90.0137 341.165 97.5608 348.712 106.882 348.712Z" fill="#77C11F"/>
<path d="M253.105 348.712C262.426 348.712 269.973 341.165 269.973 331.843C269.973 322.522 262.426 314.975 253.105 314.975C243.783 314.975 236.236 322.522 236.236 331.843C236.236 341.165 243.783 348.712 253.105 348.712Z" fill="#77C11F"/>
<path d="M331.843 269.974C341.165 269.974 348.712 262.427 348.712 253.105C348.712 243.784 341.165 236.237 331.843 236.237C322.522 236.237 314.975 243.784 314.975 253.105C314.975 262.427 322.522 269.974 331.843 269.974Z" fill="#77C11F"/>
<path d="M331.843 123.763C341.165 123.763 348.712 116.215 348.712 106.894C348.712 97.5725 341.165 90.0254 331.843 90.0254C322.522 90.0254 314.975 97.5725 314.975 106.894C314.975 116.215 322.522 123.763 331.843 123.763Z" fill="#77C11F"/>
<path d="M179.769 202.076C192.099 202.076 202.05 192.111 202.05 179.781C202.05 167.451 192.086 157.5 179.769 157.5C167.452 157.5 157.475 167.464 157.475 179.781C157.475 192.099 167.439 202.076 179.769 202.076Z" fill="#77C11F"/>
<path d="M337.475 157.705C331.239 157.705 326.161 160.855 321.545 164.314C310.077 172.89 295.857 172.44 286.599 161.138C279.798 152.82 270.335 146.468 258.751 146.468C240.082 146.468 225.014 161.55 225.014 180.205C225.014 191.79 231.725 200.841 239.684 208.054C250.188 217.543 251.294 230.978 242.859 242.794C239.504 247.487 236.264 252.488 236.264 258.724C236.264 271.17 246.318 281.224 258.764 281.224C271.209 281.224 281.264 271.17 281.264 258.724C281.264 252.488 277.985 247.5 274.668 242.794C265.681 230.027 266.504 211.371 277.754 200.121C289.004 188.871 309.768 187.573 321.571 196.084C326.251 199.453 331.278 202.693 337.501 202.693C349.947 202.693 360.001 192.638 360.001 180.193C360.001 167.747 349.947 157.693 337.501 157.693H337.475V157.705Z" fill="#77C11F"/>
<path d="M202.282 337.475C202.282 331.239 199.132 326.16 195.674 321.545C187.098 310.076 187.548 295.856 198.849 286.599C207.168 279.797 213.519 270.335 213.519 258.75C213.519 240.082 198.438 225.013 179.782 225.013C168.198 225.013 159.147 231.712 151.934 239.683C142.432 250.187 129.009 251.293 117.194 242.859C112.501 239.503 107.499 236.263 101.264 236.263C88.818 236.263 78.7637 246.317 78.7637 258.763C78.7637 271.209 88.818 281.263 101.264 281.263C107.499 281.263 112.488 277.985 117.194 274.667C129.961 265.68 148.617 266.503 159.867 277.753C171.117 289.003 172.415 309.767 163.904 321.57C160.535 326.25 157.295 331.277 157.295 337.5C157.295 349.946 167.349 360 179.795 360C192.241 360 202.295 349.946 202.295 337.5V337.475H202.282Z" fill="#77C11F"/>
<path d="M22.5257 202.487C28.7614 202.487 33.84 199.337 38.4557 195.878C49.9243 187.303 64.1443 187.753 73.4014 199.054C80.2028 207.373 89.6657 213.724 101.25 213.724C119.919 213.724 134.987 198.643 134.987 179.987C134.987 168.403 128.289 159.351 120.317 152.138C109.813 142.637 108.707 129.214 117.141 117.398C120.497 112.705 123.737 107.704 123.737 101.468C123.737 89.0225 113.683 78.9683 101.237 78.9683C88.7914 78.9683 78.7371 89.0225 78.7371 101.468C78.7371 107.704 82.0286 112.693 85.3329 117.398C94.32 130.165 93.4971 148.821 82.2471 160.071C70.9971 171.321 50.2329 172.62 38.43 164.108C33.75 160.74 28.7229 157.5 22.5 157.5C10.0543 157.5 0 167.554 0 180C0 192.445 10.0543 202.5 22.5 202.5H22.5257V202.487Z" fill="#77C11F"/>
<path d="M157.501 22.5257C157.501 28.7614 160.651 33.84 164.109 38.4557C172.685 49.9243 172.235 64.1443 160.934 73.4014C152.615 80.2029 146.264 89.6657 146.264 101.25C146.264 119.919 161.345 134.987 180.001 134.987C191.585 134.987 200.637 128.289 207.849 120.317C217.338 109.813 230.761 108.707 242.589 117.141C247.282 120.497 252.284 123.737 258.519 123.737C270.965 123.737 281.019 113.683 281.019 101.237C281.019 88.7914 270.965 78.7372 258.519 78.7372C252.284 78.7372 247.295 82.0286 242.589 85.3329C229.822 94.32 211.167 93.4972 199.917 82.2472C188.667 70.9972 187.368 50.2329 195.879 38.43C199.248 33.75 202.488 28.7229 202.488 22.5C202.488 10.0543 192.434 0 179.988 0C167.542 0 157.488 10.0543 157.488 22.5V22.5257H157.501Z" fill="#77C11F"/>
</svg>
